<svg xmlns="http://www.w3.org/2000/svg" xmlns:xlink="http://www.w3.org/1999/xlink" width="40" zoomAndPan="magnify" viewBox="0 0 30 30.000001" height="40" preserveAspectRatio="xMidYMid meet" version="1.0"><defs><clipPath id="2b6d06f590"><path d="M 0.484375 6 L 12 6 L 12 23 L 0.484375 23 Z M 0.484375 6 " clip-rule="nonzero"/></clipPath><clipPath id="db0dc500f8"><path d="M 0.484375 4.691406 L 29.515625 4.691406 L 29.515625 16 L 0.484375 16 Z M 0.484375 4.691406 " clip-rule="nonzero"/></clipPath><clipPath id="db81c9f284"><path d="M 0.484375 15 L 29.515625 15 L 29.515625 24.285156 L 0.484375 24.285156 Z M 0.484375 15 " clip-rule="nonzero"/></clipPath><clipPath id="959cce1447"><path d="M 18 6 L 29.515625 6 L 29.515625 23 L 18 23 Z M 18 6 " clip-rule="nonzero"/></clipPath></defs><g clip-path="url(#2b6d06f590)"><path fill="current" d="M 11.332031 14.578125 L 0.492188 6.355469 L 0.492188 22.800781 Z M 11.332031 14.578125 " fill-opacity="1" fill-rule="nonzero"/></g><g clip-path="url(#db0dc500f8)"><path fill="current" d="M 15.78125 15.574219 L 29.207031 5.03125 C 29.007812 4.820312 28.726562 4.691406 28.417969 4.691406 L 1.578125 4.691406 C 1.25 4.691406 0.957031 4.839844 0.757812 5.070312 L 14.625 15.585938 C 14.929688 15.816406 15.480469 15.8125 15.78125 15.574219 " fill-opacity="1" fill-rule="nonzero"/></g><g clip-path="url(#db81c9f284)"><path fill="current" d="M 16.515625 16.507812 C 16.148438 16.796875 15.671875 16.941406 15.195312 16.941406 C 14.730469 16.941406 14.269531 16.804688 13.90625 16.53125 L 12.316406 15.324219 L 0.859375 24.011719 C 1.054688 24.179688 1.304688 24.285156 1.578125 24.285156 L 28.417969 24.285156 C 28.675781 24.285156 28.910156 24.191406 29.097656 24.042969 L 18.007812 15.335938 L 16.515625 16.507812 " fill-opacity="1" fill-rule="nonzero"/></g><g clip-path="url(#959cce1447)"><path fill="current" d="M 29.507812 22.855469 L 29.507812 6.304688 L 18.972656 14.582031 L 29.507812 22.855469 " fill-opacity="1" fill-rule="nonzero"/></g></svg>