<svg xmlns="http://www.w3.org/2000/svg" xmlns:xlink="http://www.w3.org/1999/xlink" width="40" zoomAndPan="magnify" viewBox="0 0 30 30.000001" height="40" preserveAspectRatio="xMidYMid meet" version="1.0"><defs><clipPath id="75d6e81c41"><path d="M 0.484375 0 L 29.515625 0 L 29.515625 29.03125 L 0.484375 29.03125 Z M 0.484375 0 " clipRule="nonzero"/></clipPath><clipPath id="8c2262ef39"><path d="M 8.777344 0 L 21.113281 0 L 21.113281 17 L 8.777344 17 Z M 8.777344 0 " clipRule="nonzero"/></clipPath><clipPath id="b5f38c25ed"><path d="M 8.777344 12 L 21.113281 12 L 21.113281 29.03125 L 8.777344 29.03125 Z M 8.777344 12 " clipRule="nonzero"/></clipPath><clipPath id="5bf7517adf"><path d="M 8.777344 8 L 21.113281 8 L 21.113281 21 L 8.777344 21 Z M 8.777344 8 " clipRule="nonzero"/></clipPath></defs><g clip-path="url(#75d6e81c41)"><path fill="#12229d" d="M 21.117188 0 L 21.117188 8.296875 L 8.777344 16.589844 L 8.777344 8.296875 L 21.117188 0 " fill-opacity="1" fillRule="nonzero"/></g><g clip-path="url(#b5f38c25ed)"><path fill="#3a9bdc" d="M 21.117188 12.441406 L 21.117188 20.738281 L 8.777344 29.03125 L 8.777344 20.738281 L 21.117188 12.441406 " fill-opacity="1" fillRule="nonzero"/></g><g clip-path="url(#5bf7517adf)"><path fill="#233dff" d="M 8.777344 16.589844 L 21.117188 20.738281 L 21.117188 12.441406 L 8.777344 8.296875 " fill-opacity="1" fillRule="nonzero"/></g></svg>