<svg xmlns="http://www.w3.org/2000/svg" xmlns:xlink="http://www.w3.org/1999/xlink" width="current" zoomAndPan="magnify" viewBox="0 0 375 374.999991" height="current" preserveAspectRatio="xMidYMid meet" version="1.0"><defs><g/><clipPath id="8d58805543"><path d="M 0 82.914062 L 90 82.914062 L 90 203 L 0 203 Z M 0 82.914062 " clip-rule="nonzero"/></clipPath><clipPath id="6cb1957c6e"><path d="M 0 172 L 90 172 L 90 292.164062 L 0 292.164062 Z M 0 172 " clip-rule="nonzero"/></clipPath></defs><g clip-path="url(#8d58805543)"><path fill="#12229d" d="M 89.984375 82.917969 L 89.984375 142.699219 L 0.015625 202.484375 L 0.015625 142.699219 L 89.984375 82.917969 " fill-opacity="1" fill-rule="nonzero"/></g><g clip-path="url(#6cb1957c6e)"><path fill="#3a9bdc" d="M 89.984375 172.59375 L 89.984375 232.378906 L 0.015625 292.164062 L 0.015625 232.378906 L 89.984375 172.59375 " fill-opacity="1" fill-rule="nonzero"/></g><path fill="#233dff" d="M 0.015625 202.484375 L 89.984375 232.378906 L 89.984375 172.59375 L 0.015625 142.699219 " fill-opacity="1" fill-rule="nonzero"/><g fill="#000000" fill-opacity="1"><g transform="translate(100.736784, 169.522562)"><g><path d="M 15.738281 0.726562 C 24.164062 0.726562 29.148438 -3.246094 29.148438 -9.925781 C 29.148438 -15.542969 25.519531 -18.835938 17.285156 -20.675781 C 12.929688 -21.644531 11.332031 -22.710938 11.332031 -24.453125 C 11.332031 -26.097656 12.785156 -27.117188 15.058594 -27.117188 C 17.769531 -27.117188 19.320312 -25.710938 19.320312 -23.144531 L 28.519531 -23.144531 C 28.519531 -30.117188 23.195312 -34.621094 14.867188 -34.621094 C 6.875 -34.621094 1.9375 -30.652344 1.9375 -24.257812 C 1.9375 -18.546875 5.664062 -15.011719 13.316406 -13.558594 C 17.433594 -12.734375 19.417969 -11.476562 19.417969 -9.539062 C 19.417969 -7.84375 17.964844 -6.875 15.589844 -6.875 C 12.785156 -6.875 11.136719 -8.375 11.136719 -10.992188 L 1.695312 -10.992188 C 1.695312 -3.679688 6.925781 0.726562 15.738281 0.726562 Z M 15.738281 0.726562 "/></g></g></g><g fill="#000000" fill-opacity="1"><g transform="translate(131.678277, 169.522562)"><g><path d="M 11.667969 0 L 21.402344 0 L 21.402344 -24.839844 L 31.714844 -24.839844 L 31.714844 -33.894531 L 1.355469 -33.894531 L 1.355469 -24.839844 L 11.667969 -24.839844 Z M 11.667969 0 "/></g></g></g><g fill="#000000" fill-opacity="1"><g transform="translate(164.75033, 169.522562)"><g><path d="M 3.582031 0 L 13.363281 0 L 13.363281 -9.636719 L 17.042969 -9.636719 L 21.886719 0 L 32.976562 0 L 26.730469 -11.425781 C 30.3125 -13.414062 32.34375 -16.996094 32.34375 -21.742188 C 32.34375 -29.246094 27.261719 -33.894531 19.03125 -33.894531 L 3.582031 -33.894531 Z M 13.171875 -17.433594 L 13.171875 -25.90625 L 17.722656 -25.90625 C 20.820312 -25.90625 22.515625 -24.40625 22.515625 -21.691406 C 22.515625 -18.980469 20.820312 -17.433594 17.722656 -17.433594 Z M 13.171875 -17.433594 "/></g></g></g><g fill="#000000" fill-opacity="1"><g transform="translate(199.61399, 169.522562)"><g><path d="M 0.242188 0 L 10.605469 0 L 12.445312 -4.792969 L 24.015625 -4.792969 L 25.855469 0 L 36.269531 0 L 23.097656 -33.894531 L 13.414062 -33.894531 Z M 14.476562 -11.960938 L 18.253906 -22.46875 L 22.03125 -11.960938 Z M 14.476562 -11.960938 "/></g></g></g><g fill="#000000" fill-opacity="1"><g transform="translate(236.123983, 169.522562)"><g><path d="M 3.582031 0 L 13.265625 0 L 13.265625 -17.285156 L 26.148438 0 L 34.089844 0 L 34.089844 -33.894531 L 24.453125 -33.894531 L 24.453125 -16.707031 L 11.574219 -33.894531 L 3.582031 -33.894531 Z M 3.582031 0 "/></g></g></g><g fill="#000000" fill-opacity="1"><g transform="translate(273.844522, 169.522562)"><g><path d="M 19.417969 0.726562 C 28.761719 0.726562 35.832031 -4.9375 37.285156 -13.558594 L 27.359375 -13.558594 C 26.148438 -10.363281 23.289062 -8.328125 19.609375 -8.328125 C 14.867188 -8.328125 11.574219 -11.863281 11.574219 -16.949219 C 11.574219 -22.082031 14.914062 -25.566406 19.707031 -25.566406 C 23.242188 -25.566406 26.195312 -23.582031 27.214844 -20.53125 L 37.089844 -20.53125 C 35.347656 -29.101562 28.375 -34.621094 19.320312 -34.621094 C 8.859375 -34.621094 1.644531 -27.40625 1.644531 -16.949219 C 1.644531 -6.488281 8.859375 0.726562 19.417969 0.726562 Z M 19.417969 0.726562 "/></g></g></g><g fill="#000000" fill-opacity="1"><g transform="translate(312.678746, 169.522562)"><g><path d="M 20.09375 0.726562 C 30.894531 0.726562 38.542969 -6.585938 38.542969 -16.949219 C 38.542969 -27.308594 30.894531 -34.621094 20.09375 -34.621094 C 9.296875 -34.621094 1.644531 -27.308594 1.644531 -16.949219 C 1.644531 -6.585938 9.296875 0.726562 20.09375 0.726562 Z M 11.574219 -16.949219 C 11.574219 -22.03125 15.109375 -25.566406 20.09375 -25.566406 C 25.128906 -25.566406 28.617188 -22.03125 28.617188 -16.949219 C 28.617188 -11.863281 25.128906 -8.328125 20.09375 -8.328125 C 15.109375 -8.328125 11.574219 -11.863281 11.574219 -16.949219 Z M 11.574219 -16.949219 "/></g></g></g><g fill="#000000" fill-opacity="1"><g transform="translate(352.917057, 169.522562)"><g/></g></g><g fill="#000000" fill-opacity="1"><g transform="translate(89.837187, 236.102313)"><g><path d="M 3.582031 0 L 13.363281 0 L 13.363281 -8.375 L 17.867188 -8.375 C 26.488281 -8.375 31.957031 -13.363281 31.957031 -21.160156 C 31.957031 -28.957031 26.488281 -33.894531 17.867188 -33.894531 L 3.582031 -33.894531 Z M 13.265625 -16.558594 L 13.265625 -25.664062 L 16.949219 -25.664062 C 20.191406 -25.664062 22.082031 -23.921875 22.082031 -21.113281 C 22.082031 -18.253906 20.191406 -16.558594 16.949219 -16.558594 Z M 13.265625 -16.558594 "/></g></g></g><g fill="#000000" fill-opacity="1"><g transform="translate(122.90924, 236.102313)"><g><path d="M 3.582031 0 L 13.363281 0 L 13.363281 -9.636719 L 17.042969 -9.636719 L 21.886719 0 L 32.976562 0 L 26.730469 -11.425781 C 30.3125 -13.414062 32.34375 -16.996094 32.34375 -21.742188 C 32.34375 -29.246094 27.261719 -33.894531 19.03125 -33.894531 L 3.582031 -33.894531 Z M 13.171875 -17.433594 L 13.171875 -25.90625 L 17.722656 -25.90625 C 20.820312 -25.90625 22.515625 -24.40625 22.515625 -21.691406 C 22.515625 -18.980469 20.820312 -17.433594 17.722656 -17.433594 Z M 13.171875 -17.433594 "/></g></g></g><g fill="#000000" fill-opacity="1"><g transform="translate(157.7729, 236.102313)"><g><path d="M 20.09375 0.726562 C 30.894531 0.726562 38.542969 -6.585938 38.542969 -16.949219 C 38.542969 -27.308594 30.894531 -34.621094 20.09375 -34.621094 C 9.296875 -34.621094 1.644531 -27.308594 1.644531 -16.949219 C 1.644531 -6.585938 9.296875 0.726562 20.09375 0.726562 Z M 11.574219 -16.949219 C 11.574219 -22.03125 15.109375 -25.566406 20.09375 -25.566406 C 25.128906 -25.566406 28.617188 -22.03125 28.617188 -16.949219 C 28.617188 -11.863281 25.128906 -8.328125 20.09375 -8.328125 C 15.109375 -8.328125 11.574219 -11.863281 11.574219 -16.949219 Z M 11.574219 -16.949219 "/></g></g></g><g fill="#000000" fill-opacity="1"><g transform="translate(198.011366, 236.102313)"><g><path d="M 3.582031 0 L 17.964844 0 C 28.90625 0 36.171875 -6.730469 36.171875 -16.949219 C 36.171875 -27.117188 28.90625 -33.894531 17.964844 -33.894531 L 3.582031 -33.894531 Z M 13.363281 -8.765625 L 13.363281 -25.128906 L 17.675781 -25.128906 C 22.855469 -25.128906 26.195312 -21.933594 26.195312 -16.949219 C 26.195312 -11.960938 22.855469 -8.765625 17.675781 -8.765625 Z M 13.363281 -8.765625 "/></g></g></g><g fill="#000000" fill-opacity="1"><g transform="translate(235.82874, 236.102313)"><g><path d="M 18.15625 0.726562 C 27.308594 0.726562 32.976562 -4.84375 32.976562 -13.945312 L 32.976562 -33.894531 L 23.242188 -33.894531 L 23.242188 -14.574219 C 23.242188 -10.554688 21.546875 -8.425781 18.15625 -8.425781 C 14.769531 -8.425781 13.074219 -10.554688 13.074219 -14.574219 L 13.074219 -33.894531 L 3.292969 -33.894531 L 3.292969 -13.945312 C 3.292969 -4.84375 9.007812 0.726562 18.15625 0.726562 Z M 18.15625 0.726562 "/></g></g></g><g fill="#000000" fill-opacity="1"><g transform="translate(272.145038, 236.102313)"><g><path d="M 19.417969 0.726562 C 28.761719 0.726562 35.832031 -4.9375 37.285156 -13.558594 L 27.359375 -13.558594 C 26.148438 -10.363281 23.289062 -8.328125 19.609375 -8.328125 C 14.867188 -8.328125 11.574219 -11.863281 11.574219 -16.949219 C 11.574219 -22.082031 14.914062 -25.566406 19.707031 -25.566406 C 23.242188 -25.566406 26.195312 -23.582031 27.214844 -20.53125 L 37.089844 -20.53125 C 35.347656 -29.101562 28.375 -34.621094 19.320312 -34.621094 C 8.859375 -34.621094 1.644531 -27.40625 1.644531 -16.949219 C 1.644531 -6.488281 8.859375 0.726562 19.417969 0.726562 Z M 19.417969 0.726562 "/></g></g></g><g fill="#000000" fill-opacity="1"><g transform="translate(310.979262, 236.102313)"><g><path d="M 11.667969 0 L 21.402344 0 L 21.402344 -24.839844 L 31.714844 -24.839844 L 31.714844 -33.894531 L 1.355469 -33.894531 L 1.355469 -24.839844 L 11.667969 -24.839844 Z M 11.667969 0 "/></g></g></g><g fill="#000000" fill-opacity="1"><g transform="translate(344.051314, 236.102313)"><g><path d="M 15.738281 0.726562 C 24.164062 0.726562 29.148438 -3.246094 29.148438 -9.925781 C 29.148438 -15.542969 25.519531 -18.835938 17.285156 -20.675781 C 12.929688 -21.644531 11.332031 -22.710938 11.332031 -24.453125 C 11.332031 -26.097656 12.785156 -27.117188 15.058594 -27.117188 C 17.769531 -27.117188 19.320312 -25.710938 19.320312 -23.144531 L 28.519531 -23.144531 C 28.519531 -30.117188 23.195312 -34.621094 14.867188 -34.621094 C 6.875 -34.621094 1.9375 -30.652344 1.9375 -24.257812 C 1.9375 -18.546875 5.664062 -15.011719 13.316406 -13.558594 C 17.433594 -12.734375 19.417969 -11.476562 19.417969 -9.539062 C 19.417969 -7.84375 17.964844 -6.875 15.589844 -6.875 C 12.785156 -6.875 11.136719 -8.375 11.136719 -10.992188 L 1.695312 -10.992188 C 1.695312 -3.679688 6.925781 0.726562 15.738281 0.726562 Z M 15.738281 0.726562 "/></g></g></g></svg>